<svg xmlns="http://www.w3.org/2000/svg" viewBox="0 0 60 60" fill="none" role="img" aria-label="ExamIA">
  <defs>
    <linearGradient id="grad" x1="0" y1="0" x2="60" y2="60" gradientUnits="userSpaceOnUse">
      <stop offset="0%" stop-color="#4F46E5"/>
      <stop offset="100%" stop-color="#7C3AED"/>
    </linearGradient>
  </defs>

  <rect width="60" height="60" rx="14" fill="url(#grad)"/>
  <rect x="12" y="9" width="36" height="44" rx="5" fill="white" opacity="0.96"/>

  <rect x="18" y="20" width="24" height="2.5" rx="1.25" fill="#4338CA" opacity="0.28"/>
  <rect x="18" y="27" width="17" height="2.5" rx="1.25" fill="#4338CA" opacity="0.28"/>
  <rect x="18" y="34" width="21" height="2.5" rx="1.25" fill="#4338CA" opacity="0.28"/>
  <rect x="18" y="41" width="13" height="2.5" rx="1.25" fill="#4338CA" opacity="0.28"/>

  <circle cx="44" cy="14" r="9" fill="#7C3AED" opacity="0.18"/>
  <g transform="translate(44,14)">
    <path d="M0,-7 C0,-1.8 1.8,0 7,0 C1.8,0 0,1.8 0,7 C0,1.8 -1.8,0 -7,0 C-1.8,0 0,-1.8 0,-7Z" fill="white"/>
    <circle r="1.6" fill="#C4B5FD"/>
  </g>
</svg>
